<svg width="16" height="19" viewBox="0 0 16 19" fill="none" xmlns="http://www.w3.org/2000/svg">
<path d="M5.90529 0L15.7429 18.3985C15.8931 18.6989 15.6678 18.9993 15.3674 18.9993H9.88538L0.047806 0.600767C-0.102386 0.300384 0.122902 0 0.423286 0L5.90529 0Z" fill="url(#paint0_linear_2396_8253)"/>
<path d="M15.3631 0L7.85352 0L11.9087 7.65979L15.6635 0.675863C15.8888 0.375479 15.6635 0 15.3631 0Z" fill="url(#paint1_linear_2396_8253)"/>
<path d="M3.8026 11.34L0.047806 18.399C-0.102386 18.6994 0.122902 18.9998 0.423286 18.9998H7.93288L3.8026 11.34Z" fill="url(#paint2_linear_2396_8253)"/>
<defs>
<linearGradient id="paint0_linear_2396_8253" x1="7.89533" y1="0" x2="7.89533" y2="18.9993" gradientUnits="userSpaceOnUse">
<stop stop-color="white"/>
<stop offset="1" stop-color="white"/>
</linearGradient>
<linearGradient id="paint1_linear_2396_8253" x1="11.8043" y1="0" x2="11.8043" y2="7.65979" gradientUnits="userSpaceOnUse">
<stop stop-color="white"/>
<stop offset="1" stop-color="white"/>
</linearGradient>
<linearGradient id="paint2_linear_2396_8253" x1="3.96644" y1="11.34" x2="3.96644" y2="18.9998" gradientUnits="userSpaceOnUse">
<stop stop-color="white"/>
<stop offset="1" stop-color="white"/>
</linearGradient>
</defs>
</svg>
